<svg width="421" height="435" viewBox="0 0 421 435" fill="none" xmlns="http://www.w3.org/2000/svg">
<g clip-path="url(#clip0_113_615)">
<path d="M420.574 148.547L419.935 147.909L418.019 144.078H418.232L417.167 141.524C412.932 131.247 407.112 121.696 399.918 113.219L399.279 112.581H398.214C376.281 113.645 353.495 120.242 334.33 127.691C321.753 110.004 305.476 95.2621 286.629 84.4888C286.86 84.2297 287.036 83.9262 287.146 83.5968C287.256 83.2675 287.297 82.9193 287.268 82.5734V82.1478C287.233 81.0792 287.305 80.0099 287.481 78.9555L295.147 79.3811H295.573C297.064 79.3811 298.341 78.1042 298.98 75.5504C299.711 73.282 300.071 70.9104 300.045 68.5274C300.258 66.6121 300.258 57.4609 296.212 57.2481H295.786L287.268 56.6096H286.629C286.416 54.6942 285.99 52.9917 285.777 51.0763L290.888 51.502H291.314C295.786 51.502 296.425 40.0098 296.425 38.7329C296.502 35.8707 296.216 33.0103 295.573 30.2202C294.934 27.2407 293.657 25.751 291.953 25.5382H291.101L281.518 24.8997H281.306C279.59 24.7064 277.854 24.851 276.195 25.3253C273.827 20.8884 271.047 16.6844 267.89 12.7691C267.677 8.29992 266.612 1.91537 262.992 1.91537H262.14L257.881 1.48974L255.113 1.06411C235.734 -1.70252 222.532 1.06409 221.893 1.27691H221.041L220.615 2.1282C210.181 21.2818 204.005 44.0533 200.385 64.0582C178.387 65.5045 156.96 71.6746 137.565 82.1478C137.565 82.0349 137.52 81.9266 137.44 81.8468C137.36 81.767 137.252 81.7221 137.139 81.7221L136.713 81.2965L134.158 79.5939L138.843 73.2094C140.972 70.0171 133.519 64.4839 132.028 63.4198C130.538 62.3557 122.659 57.4609 120.529 60.866L120.103 61.5044L115.205 68.3146L114.779 68.7402L109.669 66.8249L112.65 62.5685H112.863C115.418 58.7378 105.836 52.1404 104.771 51.2891C103.706 50.4379 93.9105 44.2661 91.3551 48.0969L90.9291 48.7353L85.1796 56.6096C84.0489 58.0013 83.1828 59.5881 82.6241 61.2916C77.6523 61.0084 72.6653 61.1508 67.7177 61.7172C63.8846 59.5891 57.9221 57.0352 55.7926 60.0147C53.6631 62.9941 55.5797 60.4403 55.5797 60.866L53.0243 64.271L51.1077 66.3992C43.7387 74.7493 37.7699 84.2358 33.4329 94.4912L33.0071 95.3425L33.4329 96.1937C43.8674 114.922 59.6257 132.16 75.1709 146.419C63.5273 168.302 57.4569 192.715 57.4962 217.5C57.4962 219.415 57.7092 221.331 57.7092 223.246L56.6444 223.672H56.2185L53.4502 225.161L49.83 218.351H49.6171C48.7653 216.862 47.0617 216.649 44.5063 217.287C42.1811 217.878 39.9565 218.811 37.9049 220.054C35.7319 221.193 33.7257 222.626 31.9423 224.31C30.0258 226.226 29.3869 227.715 30.2387 229.205L30.6646 229.843L34.4977 237.292L34.9236 237.718L30.6646 241.336L28.3222 236.866H28.1092C27.2574 235.377 25.3409 234.951 22.3596 235.802C19.5914 236.476 16.9368 237.552 14.4805 238.995C13.2028 239.633 3.19423 245.592 5.32372 249.636L5.96254 250.274L10.4345 257.935C11.1985 259.502 12.2046 260.938 13.4158 262.192C10.9909 266.588 8.85685 271.137 7.02728 275.812C5.48621 276.787 4.05784 277.929 2.7683 279.217C0.212917 281.771 -0.638891 283.899 0.425853 285.602C1.4906 287.304 0.638841 286.027 1.06474 286.24L2.7683 289.858H2.55534L3.83305 292.412C7.97491 302.736 13.8039 312.301 21.0819 320.717L21.7207 321.355H22.7855C44.7192 320.291 67.7177 313.481 86.8831 306.245C100.952 325.474 119.33 341.144 140.546 352.001V352.427C140.546 353.491 140.333 354.555 140.333 355.619L132.454 355.193H132.241C128.195 355.193 127.769 364.344 127.556 366.26C127.527 368.617 127.741 370.97 128.195 373.283C128.834 376.049 129.899 377.326 131.389 377.539H132.028L140.546 378.178H141.398C141.561 379.968 141.846 381.746 142.25 383.498H136.713C132.241 383.498 131.602 395.203 131.602 396.48C131.464 399.333 131.678 402.192 132.241 404.993C133.093 407.972 134.158 409.462 135.861 409.462H136.713L146.509 410.1H147.787C149.149 410.183 150.517 410.039 151.833 409.675C154.2 414.112 156.981 418.316 160.138 422.231C160.102 424.096 160.317 425.957 160.776 427.764C161.628 431.169 163.119 433.085 165.035 433.085H165.887L170.146 433.51H169.933L172.702 433.936C178.407 434.83 184.176 435.257 189.95 435.213C195.302 435.263 200.646 434.836 205.922 433.936H206.986L207.412 433.085C218.273 413.293 224.448 389.244 227.855 368.814C248.257 366.53 267.971 360.083 285.777 349.873L286.629 350.724H286.842L289.611 352.639L284.926 359.024C284.074 360.301 284.5 362.003 286.203 364.132C287.815 365.949 289.679 367.526 291.74 368.814C292.805 369.665 297.49 372.644 300.684 372.644C301.166 372.707 301.656 372.641 302.104 372.454C302.553 372.268 302.944 371.966 303.239 371.58L303.665 370.942L308.563 364.132L308.989 363.493L314.1 365.621L310.905 369.878H311.118C311.118 369.934 311.096 369.988 311.056 370.028C311.016 370.068 310.962 370.091 310.905 370.091C308.35 373.921 317.933 380.731 318.997 381.37C321.295 383.036 323.801 384.396 326.451 385.413L329.645 386.052C330.176 386.087 330.708 385.988 331.191 385.765C331.675 385.542 332.095 385.202 332.413 384.775L332.839 384.136L338.589 376.049C339.701 374.678 340.501 373.08 340.931 371.367H346.468L356.051 370.942C357.664 371.905 359.378 372.69 361.161 373.283L364.781 373.921C365.243 373.96 365.708 373.905 366.147 373.759C366.586 373.612 366.991 373.378 367.337 373.07H367.55L371.596 367.537L372.661 366.26C380.079 357.947 386.053 348.452 390.335 338.168V337.317L389.909 336.465C379.262 317.099 362.865 299.435 346.681 284.963C357.271 263.742 362.81 240.362 362.865 216.649C362.905 215.014 362.834 213.379 362.652 211.754L363.93 211.328H364.356L367.337 209.839L370.957 216.649H371.17C371.426 217.148 371.828 217.558 372.322 217.824C372.816 218.091 373.38 218.2 373.938 218.138L376.281 217.713C378.592 217.082 380.812 216.152 382.882 214.946C384.586 214.095 392.465 209.413 390.548 205.795L389.909 205.157L386.289 197.708L385.863 197.282L389.909 193.452L392.465 198.134C392.521 198.134 392.575 198.156 392.615 198.196C392.655 198.236 392.678 198.29 392.678 198.346C393.005 198.881 393.483 199.307 394.051 199.571C394.619 199.836 395.252 199.928 395.872 199.836L398.427 199.41C401.237 198.657 403.952 197.586 406.519 196.218C407.797 195.58 417.806 189.621 415.463 185.577C415.463 185.364 415.25 185.152 415.037 184.939L410.565 176.213C409.73 174.636 408.653 173.2 407.371 171.957C409.952 167.611 412.161 163.055 413.973 158.337C417.38 155.996 422.278 151.739 420.574 148.547ZM407.797 177.703L410.991 184.3C407.795 185.103 404.716 186.32 401.835 187.918C398.981 189.488 396.393 191.499 394.168 193.877H393.956L390.548 187.067C387.141 180.257 390.122 178.129 395.446 175.149C397.348 173.85 399.543 173.045 401.835 172.808H403.112C405.207 173.831 406.868 175.566 407.797 177.703ZM395.872 196.644C397.945 194.105 400.566 192.068 403.538 190.685C406.222 188.886 409.281 187.722 412.482 187.28C410.547 189.921 407.986 192.042 405.029 193.452C402.215 195.105 399.104 196.189 395.872 196.644ZM404.177 170.042C400.77 168.978 397.15 170.467 393.956 172.383C390.761 174.298 382.669 178.554 387.567 188.557L388.419 190.259L383.947 194.303C383.214 193.329 382.156 192.65 380.966 192.388C377.984 191.323 375.003 192.813 372.235 194.303C369.466 195.793 364.356 199.411 366.059 206.221L363.93 207.498C363.93 204.305 364.143 198.985 358.819 195.154C353.495 191.323 346.255 190.472 334.969 191.323C335.319 190.752 335.521 190.104 335.559 189.435C335.596 188.766 335.466 188.099 335.182 187.493H335.395L329.219 175.788L328.154 173.872C332.839 171.531 337.95 168.978 343.487 166.637L344.125 167.701L349.875 178.98H350.301C350.723 179.587 351.304 180.066 351.98 180.366C352.655 180.667 353.4 180.776 354.134 180.683C358.123 180.29 362.013 179.21 365.633 177.49C368.442 176.086 371.085 174.373 373.512 172.383C376.068 170.042 377.132 167.913 376.281 166.211L375.855 165.785H376.281L371.17 155.783C376.707 153.867 382.456 151.952 388.206 150.462C388.532 151.007 388.817 151.577 389.058 152.165L394.594 163.019H394.807L395.233 163.657C395.543 164.269 396.041 164.765 396.655 165.071C397.269 165.378 397.965 165.479 398.64 165.36C399.652 165.416 400.666 165.271 401.622 164.934C404.084 164.35 406.45 163.419 408.649 162.167C407.4 165.156 405.978 168.07 404.39 170.893L404.177 170.042ZM383.521 199.198L386.289 204.518C383.763 205.213 381.332 206.213 379.049 207.498C376.876 208.637 374.87 210.069 373.086 211.754H372.448L369.679 206.646C367.55 200.9 369.253 199.198 373.725 196.644C375.343 195.634 377.158 194.981 379.049 194.728H380.114C381.392 195.793 382.456 197.069 383.521 199.198ZM374.79 214.733C376.458 213.007 378.401 211.568 380.54 210.477C382.633 209.167 384.939 208.231 387.354 207.71C383.973 211.267 379.592 213.716 374.79 214.733ZM364.356 370.303C357.498 368.353 351.451 364.249 347.107 358.598C350.626 359.259 353.922 360.796 356.689 363.068C359.781 364.841 362.408 367.32 364.356 370.303ZM341.357 367.537C340.718 364.132 337.737 361.578 334.756 359.45C331.774 357.321 324.108 352.214 317.294 361.152L316.229 362.642L310.692 360.088C311.03 358.986 311.174 357.834 311.118 356.683C310.48 353.491 307.924 351.575 305.369 349.66C302.813 347.745 297.277 344.765 291.953 349.447L289.823 347.957C292.033 347.21 294.005 345.89 295.539 344.133C297.073 342.376 298.113 340.245 298.554 337.955C299.619 332.422 297.064 324.76 291.314 314.971H291.74C292.355 315.015 292.972 314.901 293.531 314.641C294.09 314.38 294.573 313.981 294.934 313.481H295.147L303.026 302.84C303.46 302.249 303.818 301.605 304.091 300.925L317.72 311.566C317.327 311.817 317.028 312.191 316.868 312.63L309.202 322.845H309.628C308.776 324.335 309.202 326.463 311.118 329.229C313.179 331.636 315.461 333.845 317.933 335.827C320.442 337.751 323.156 339.392 326.025 340.722C327.262 341.164 328.55 341.45 329.858 341.573C330.389 341.608 330.921 341.509 331.404 341.286C331.888 341.063 332.308 340.723 332.626 340.296V339.87H333.052L339.654 330.719C343.913 334.976 347.958 339.232 352.005 343.701L350.727 345.191L343.274 355.193H343.7C343.7 355.406 343.487 355.406 343.487 355.619C343.487 355.832 343.061 359.237 345.19 362.003C346.913 363.912 348.841 365.625 350.94 367.111L341.357 367.537ZM336.033 373.921L331.561 379.88L330.71 378.816C328.869 376.663 326.716 374.797 324.321 373.283C321.973 371.698 319.477 370.343 316.868 369.239H315.377L319.849 363.28C324.534 357.109 327.941 358.811 332.839 362.429C337.737 366.047 337.737 366.047 338.163 368.388C338.139 370.428 337.384 372.391 336.033 373.921ZM322.618 375.837C326.664 378.816 329.006 381.37 329.432 382.647C326.3 381.84 323.341 380.47 320.701 378.603C316.655 375.624 314.313 373.07 313.887 371.793C317.019 372.6 319.977 373.97 322.618 375.837ZM302.387 366.898C300.65 364.864 298.644 363.074 296.425 361.578C294.459 360.16 292.31 359.014 290.036 358.173L289.398 357.747L292.805 353.065C297.064 348.596 299.193 349.447 303.452 352.214C307.711 354.98 307.711 355.406 307.924 357.109C307.945 358.011 307.786 358.908 307.457 359.748C307.128 360.589 306.636 361.355 306.008 362.003L302.387 366.898ZM294.721 364.132C296.794 365.494 298.599 367.225 300.045 369.239C297.716 368.463 295.497 367.39 293.444 366.047C291.371 364.685 289.566 362.954 288.12 360.939C290.449 361.715 292.667 362.788 294.721 364.132ZM134.797 396.267C134.765 393.045 135.419 389.854 136.713 386.903C137.883 389.951 138.321 393.232 137.991 396.48C138.022 399.702 137.369 402.893 136.074 405.844C134.904 402.796 134.467 399.515 134.797 396.267ZM141.185 396.48C141.263 393.618 140.976 390.757 140.333 387.967C140.333 387.542 140.12 387.116 140.12 386.69L147.574 387.116C155.24 387.754 155.666 391.585 155.24 397.757C154.814 403.929 154.814 403.716 153.11 405.206C152.215 405.898 151.181 406.389 150.079 406.646C148.976 406.904 147.831 406.92 146.722 406.695L139.482 406.27C140.454 403.09 141.026 399.801 141.185 396.48ZM155.24 407.759C157.795 405.205 158.221 401.588 158.434 397.757C158.647 393.926 159.073 384.988 147.787 383.924H146.083C145.657 381.796 145.231 379.88 145.018 377.965C146.072 377.598 147.074 377.098 147.999 376.475C150.342 374.347 150.768 370.942 150.981 367.75C151.194 364.557 150.768 358.385 143.953 356.47C143.919 355.613 143.991 354.756 144.166 353.916C145.956 355.376 148.098 356.34 150.377 356.714C152.656 357.087 154.994 356.856 157.156 356.045C162.48 353.704 167.591 347.532 172.914 337.529C173.229 338.121 173.685 338.625 174.243 338.996C174.801 339.368 175.442 339.595 176.109 339.658V340.083L189.312 340.722H191.441C191.015 346.042 190.589 351.788 189.737 357.747H188.46L175.683 356.896V357.534C173.979 357.534 172.489 359.024 171.211 362.003C170.161 365.026 169.516 368.175 169.294 371.367C168.928 374.483 169 377.635 169.507 380.731C170.146 384.137 171.424 386.052 173.34 386.265H173.766V386.69L185.053 387.329C183.775 393.288 182.284 399.034 180.581 404.78H178.664L166.739 403.929V404.354H165.887C161.628 404.354 160.563 412.654 160.138 416.698C158.188 414.09 156.478 411.312 155.027 408.398L155.24 407.759ZM134.797 374.56C134.797 374.347 135.01 374.134 135.01 373.921C135.738 371.579 136.097 369.138 136.074 366.685C136.223 364.255 136.007 361.816 135.436 359.45V358.811L141.398 359.237C147.361 360.088 147.999 362.429 147.787 367.75C147.574 373.07 147.148 372.857 145.87 373.921C145.173 374.431 144.378 374.789 143.534 374.972C142.69 375.155 141.818 375.16 140.972 374.985L134.797 374.56ZM130.751 366.473C130.876 364.017 131.305 361.587 132.028 359.237C132.779 361.644 133.068 364.171 132.88 366.685C132.973 369.161 132.537 371.627 131.602 373.921C130.959 371.493 130.672 368.984 130.751 366.473ZM12.138 276.876C15.2133 275.044 18.6104 273.816 22.1467 273.258C19.8662 276.009 17.0379 278.256 13.8417 279.856C10.9008 281.803 7.54746 283.042 4.04601 283.474C6.22759 280.709 8.98997 278.457 12.138 276.876ZM13.2028 256.446L9.79566 249.848H11.0733C13.9032 249.058 16.6221 247.914 19.1654 246.443C22.0193 244.874 24.6067 242.862 26.8316 240.484H27.0445L30.4517 247.082C33.8588 254.105 30.8776 256.233 25.3409 259.212C19.8042 262.192 20.0172 261.979 17.6747 261.341C15.7007 260.226 14.134 258.511 13.2028 256.446ZM24.915 237.505C22.9477 240.063 20.3906 242.107 17.4618 243.464C14.7613 245.231 11.7102 246.392 8.51795 246.869C10.4533 244.227 13.0142 242.107 15.9712 240.697C18.7154 239.06 21.7538 237.976 24.915 237.505ZM16.8229 264.107L19.1654 264.533C21.9827 264.287 24.6925 263.336 27.0445 261.766C31.5164 259.425 38.3308 255.594 33.22 245.592L32.3682 243.889L37.0531 239.846C37.7065 240.805 38.693 241.488 39.8214 241.761L41.9509 242.187C44.3605 241.889 46.6814 241.091 48.7653 239.846C53.0243 237.505 56.6444 234.738 54.7278 227.928L57.0703 226.651C57.0703 229.631 56.8573 235.164 62.181 238.995C67.5048 242.825 74.745 243.677 86.0313 242.825C85.64 243.38 85.4126 244.033 85.3749 244.71C85.3373 245.388 85.4909 246.062 85.8184 246.656H85.6054L91.781 258.361C92.054 259.042 92.4117 259.685 92.8457 260.276L77.5134 267.512L76.8746 266.448L70.912 254.956L70.4861 255.382C69.6343 253.679 67.5048 253.253 64.3105 253.892C61.2133 254.496 58.2071 255.497 55.3667 256.871C54.089 257.51 42.3768 263.469 44.7193 268.151C44.7193 268.363 44.9322 268.363 44.9322 268.576H44.7193L49.83 278.579C44.2934 280.494 38.5437 282.41 32.5812 283.899L31.9423 281.984L26.4056 271.343H25.9797C25.9895 271.228 25.9757 271.112 25.9391 271.002C25.9025 270.892 25.8439 270.791 25.7668 270.704C23.6373 266.874 15.7582 270.279 12.138 272.194C13.3705 269.161 14.8668 266.241 16.61 263.469L16.8229 264.107ZM37.479 234.951L34.4977 229.418C37.091 228.82 39.5962 227.891 41.9509 226.651C44.0018 225.423 45.9276 223.998 47.7005 222.395C47.757 222.395 47.8112 222.372 47.8511 222.333C47.8911 222.293 47.9135 222.238 47.9135 222.182H48.5523L51.1077 227.29C53.4502 233.036 51.7465 234.738 47.2746 237.079C42.8027 239.42 42.3768 239.42 40.8862 238.995C39.3955 238.569 38.5438 237.079 37.479 234.951ZM46.2099 219.203C44.5314 221.034 42.5945 222.612 40.4603 223.885C38.2668 225.1 35.8952 225.962 33.4329 226.438C35.1195 224.585 37.1429 223.068 39.3955 221.969C41.507 220.694 43.8068 219.76 46.2099 219.203ZM82.4112 64.271C83.05 67.889 85.8184 70.23 89.0126 72.3581C91.4495 74.5176 94.5036 75.8575 97.7435 76.1889C100.299 76.1889 103.28 74.6991 106.261 70.8684L107.539 69.3787L113.076 71.5069C112.618 72.6544 112.471 73.9024 112.65 75.1248C113.076 78.1042 115.844 80.2324 118.4 81.935C120.434 83.6735 122.97 84.7174 125.64 84.9144C126.77 84.883 127.881 84.6215 128.907 84.1458C129.932 83.6701 130.849 82.9902 131.602 82.1478L133.732 83.6375C131.176 84.9144 126.066 87.2554 125.001 93.6399C123.936 100.024 126.492 107.047 132.241 116.837C131.558 116.683 130.843 116.744 130.196 117.01C129.548 117.277 128.998 117.737 128.621 118.327H128.408L120.742 129.181L119.464 130.883L106.049 120.455L106.9 119.391L114.354 109.176V108.75C116.909 104.494 107.113 96.8322 106.049 95.9809C104.984 95.1296 94.5493 87.2554 91.3551 91.2989L90.9291 91.9374V91.5118L84.1148 100.663C79.8558 96.6194 75.8098 92.1502 71.7637 87.681L73.0414 86.1913L80.2817 76.4017H79.8558L80.4947 75.976C82.8371 72.3581 76.2357 66.8249 73.0414 64.4839L82.4112 64.271ZM87.7349 57.8865L91.9939 51.9276C94.0817 54.5373 96.6028 56.7689 99.4471 58.525C102.053 60.5466 105.014 62.0625 108.178 62.9941L103.706 69.1659C99.2341 75.1248 95.827 73.4222 90.7162 70.0171C85.6055 66.612 86.0313 66.3992 85.6054 64.0582C85.5117 62.9381 85.6527 61.8107 86.0193 60.7481C86.386 59.6854 86.9703 58.7108 87.7349 57.8865ZM101.151 55.9712C98.3721 54.2878 95.9779 52.0402 94.1234 49.3738C97.3362 49.9392 100.346 51.333 102.854 53.4173C105.685 55.0316 108.093 57.2924 109.882 60.0147C106.714 59.3097 103.736 57.9305 101.151 55.9712ZM121.381 65.1223C123.046 67.0879 124.982 68.8076 127.13 70.23C129.184 71.63 131.401 72.7735 133.732 73.635L134.371 74.0607L130.751 78.7427C126.705 83.4247 124.362 82.5734 120.316 79.5939C116.27 76.6145 116.057 76.4017 115.844 74.6991C115.828 73.8294 115.989 72.9655 116.319 72.1603C116.648 71.3552 117.139 70.6259 117.761 70.0171L121.381 65.1223ZM129.047 67.6762C126.945 66.3597 125.074 64.7059 123.51 62.7813C125.929 63.3193 128.189 64.4122 130.112 65.9736C132.261 67.2262 134.142 68.8895 135.648 70.8684C133.281 70.1899 131.048 69.1101 129.047 67.6762ZM281.306 28.092L288.546 28.5176L288.12 29.7945C287.319 32.5631 286.889 35.4257 286.842 38.3073C286.704 41.1603 286.918 44.0195 287.481 46.82C287.694 47.2456 287.694 47.6712 287.907 48.0969L280.454 47.6712C272.788 46.82 272.362 43.2021 272.575 37.0303C272.788 34.0509 273.213 31.0715 274.917 29.3689C276.404 28.3105 278.205 27.7854 280.028 27.8792L281.306 28.092ZM293.231 38.5201C293.231 41.7387 292.579 44.9241 291.314 47.8841C290.144 44.8358 289.706 41.5555 290.036 38.3073C290.005 35.0856 290.658 31.8939 291.953 28.9432C293.123 31.9916 293.561 35.2718 293.231 38.5201ZM272.788 27.0279C270.232 29.3689 269.593 33.1996 269.38 37.0303C269.167 40.8611 268.954 49.7994 280.028 50.8635H281.944C282.402 52.8301 282.758 54.819 283.009 56.8224C281.84 57.0566 280.745 57.5675 279.815 58.3121C277.472 60.4403 277.259 63.6326 277.047 67.0377C276.834 70.4428 277.259 76.4017 284.074 78.3171C283.898 79.1563 283.827 80.0141 283.861 80.8709C282.071 79.4115 279.93 78.447 277.65 78.0735C275.371 77.7001 273.033 77.9308 270.871 78.7427C265.547 81.0837 260.224 87.2554 255.113 97.2578C254.81 96.6382 254.361 96.1014 253.805 95.6936C253.248 95.2858 252.601 95.0193 251.919 94.9168L238.503 94.0656H236.586C236.799 88.9579 237.438 83.2119 238.077 77.253H239.568L252.132 78.1042V77.6786C257.029 77.6786 258.307 65.3351 258.52 63.8454C258.889 60.7296 258.818 57.5773 258.307 54.4814C257.668 50.8635 256.391 49.161 254.474 48.9482H254.048V48.5225L242.762 47.8841C244.039 41.9252 245.317 36.1791 247.021 30.2202L248.937 30.6458L261.075 31.4971V31.0714H261.927C265.973 31.0714 267.251 22.7716 267.677 18.728C269.551 21.3859 271.258 24.1579 272.788 27.0279ZM293.231 60.2275C293.154 60.3139 293.095 60.415 293.058 60.5248C293.022 60.6346 293.008 60.7507 293.018 60.866C292.289 63.208 291.93 65.6492 291.953 68.1018C291.756 70.4511 291.899 72.8165 292.379 75.1248V75.7632L286.629 75.3376C280.454 74.2735 280.028 71.9325 280.241 66.8249C280.454 61.7172 280.667 61.7172 281.944 60.6532C282.48 60.2287 283.095 59.9159 283.753 59.7331C284.411 59.5503 285.1 59.5013 285.777 59.5891H287.055L293.231 60.2275ZM297.064 68.1018C297.174 70.6473 296.738 73.1869 295.786 75.5504C295.143 73.1218 294.856 70.6128 294.934 68.1018C294.967 65.6172 295.473 63.1615 296.425 60.866C297.064 63.2212 297.28 65.6711 297.064 68.1018ZM408.649 157.273C405.66 159.123 402.328 160.354 398.853 160.89C400.974 158.066 403.751 155.802 406.945 154.293C409.973 152.362 413.391 151.126 416.954 150.675C414.673 153.426 411.845 155.673 408.649 157.273ZM371.809 341.786C373.426 343.13 374.488 345.026 374.79 347.106C375.342 351.716 374.289 356.375 371.809 360.301L366.698 367.111L366.059 366.26C363.938 363.822 361.504 361.675 358.819 359.875C356.328 358.28 353.689 356.926 350.94 355.832L349.449 354.555L354.347 348.17C358.18 342.85 367.55 338.806 371.809 341.786ZM337.524 309.012C339.141 310.356 340.203 312.252 340.505 314.332C341.042 318.874 339.989 323.461 337.524 327.314L332.413 334.337L330.497 333.06C326.595 328.31 321.535 324.645 315.803 322.419L315.164 321.781L320.275 314.971C324.108 309.863 333.052 305.819 337.524 309.012ZM329.432 337.955C326.074 336.973 322.957 335.306 320.275 333.06C317.419 330.964 314.966 328.368 313.035 325.399C316.393 326.381 319.51 328.048 322.192 330.294C325.048 332.39 327.5 334.986 329.432 337.955ZM190.376 425.21C186.804 428.23 182.278 429.889 177.599 429.892L168.868 429.254L169.507 427.977C170.317 424.848 170.746 421.632 170.785 418.4C171.037 415.183 170.749 411.946 169.933 408.823V407.546L178.238 408.185C184.414 408.611 193.358 413.931 193.145 419.677C193.107 420.744 192.84 421.79 192.362 422.745C191.885 423.699 191.207 424.54 190.376 425.21ZM202.514 373.283C202.232 375.37 201.166 377.272 199.533 378.603C196.053 381.469 191.691 383.047 187.182 383.072L178.238 382.434V380.093C179.019 377.53 179.518 374.89 179.729 372.219C180.186 368.823 180.114 365.377 179.516 362.003V361.365L188.034 361.791C194.635 362.216 202.727 367.962 202.514 373.283ZM172.914 371.58C173.132 368.022 174.074 364.546 175.683 361.365C176.479 364.781 176.695 368.306 176.322 371.793C176.222 375.302 175.272 378.734 173.553 381.796C172.739 378.455 172.523 374.996 172.914 371.58ZM26.4056 303.053C24.3633 303.852 22.1083 303.927 20.0172 303.266C15.5533 301.811 11.7698 298.786 9.36973 294.753L5.53668 287.092H6.81432C13.0744 285.211 18.8263 281.937 23.6373 277.515L24.7021 276.876L28.5351 284.325C31.3035 289.645 31.5164 300.286 26.4056 303.053ZM70.699 286.666C69.7773 287.123 68.7688 287.378 67.7407 287.415C66.7125 287.451 65.6884 287.269 64.7365 286.879C60.3759 285.551 56.7075 282.573 54.5149 278.579L50.4688 270.704L52.3854 269.64C55.0533 269.066 57.6318 268.135 60.0516 266.874C63.11 265.39 65.9714 263.532 68.5695 261.341L69.2084 260.915L73.0414 268.576C76.0227 274.322 75.5968 284.112 70.699 286.666ZM48.5523 266.448C50.9647 263.913 53.861 261.887 57.0703 260.489C60.1769 258.845 63.5786 257.833 67.0789 257.51C64.6782 260.058 61.7789 262.087 58.5609 263.469C53.6631 265.81 50.043 266.661 48.5523 266.448ZM51.7466 90.2348C50.8864 89.5756 50.176 88.7416 49.6621 87.7878C49.1482 86.834 48.8425 85.7821 48.7653 84.7016C48.0143 80.0835 49.0828 75.3543 51.7466 71.5069L56.8573 64.6967L57.7092 65.7608C59.8421 68.1257 62.2762 70.2006 64.9494 71.9325C67.5449 73.8463 70.4173 75.3533 73.4674 76.4017L74.5321 77.253L69.6342 84.0631C66.0141 88.9579 56.6444 93.6399 51.7466 90.2348ZM86.2443 123.009C84.5807 121.612 83.5143 119.632 83.263 117.476C82.6221 113.025 83.6047 108.493 86.0313 104.706L91.3551 97.4707L93.2716 98.9604C97.3293 103.541 102.346 107.174 107.965 109.601L108.391 110.027L103.493 116.837C99.6601 122.158 90.5033 125.988 86.2443 123.009ZM94.3363 93.8527C97.7328 94.8486 100.862 96.5941 103.493 98.9604C107.752 102.153 110.095 105.132 110.52 106.622C107.166 105.528 104.056 103.793 101.364 101.514C98.4513 99.5479 96.0437 96.923 94.3363 93.8527ZM237.651 9.57683C240.962 6.67998 245.178 5.02467 249.576 4.89484H250.428L258.946 5.53327C258.733 5.9589 258.733 6.38455 258.52 6.81019C257.63 9.92892 257.13 13.1456 257.029 16.387C257.003 19.5993 257.289 22.8065 257.881 25.9638V27.2407L249.576 26.6023C243.401 26.1766 234.244 20.8562 234.67 15.1101C234.733 14.0264 235.033 12.9697 235.548 12.0139C236.063 11.0581 236.781 10.2263 237.651 9.57683ZM225.513 61.5044C225.606 60.4576 225.92 59.4423 226.434 58.5253C226.948 57.6083 227.65 56.8104 228.494 56.184C231.685 53.3943 235.755 51.8127 239.993 51.7148H240.845L249.576 52.3532V54.6942C248.717 57.2474 248.145 59.8885 247.873 62.5685C247.634 65.9788 247.777 69.4051 248.298 72.7838V73.4222L239.78 72.7838C233.392 72.3581 225.087 66.8249 225.513 61.5044ZM255.113 63.207C254.896 66.7649 253.954 70.241 252.344 73.4222C251.326 70.0427 251.107 66.4727 251.706 62.9941C251.819 59.4459 252.69 55.963 254.261 52.7789C255.281 56.1554 255.571 59.7099 255.113 63.207ZM325.386 177.49L329.645 185.364L329.219 185.79C325.771 186.427 322.458 187.651 319.423 189.408C316.547 190.868 313.893 192.731 311.544 194.941L310.905 195.367L306.646 187.493C303.665 181.747 304.517 172.17 309.202 169.616C310.099 169.065 311.13 168.77 312.183 168.765C313.283 168.725 314.377 168.943 315.377 169.403C319.592 170.782 323.154 173.66 325.386 177.49ZM330.497 189.834C328.373 192.266 325.761 194.224 322.831 195.58C320.048 197.179 317.029 198.328 313.887 198.985C316.01 196.553 318.622 194.595 321.553 193.239C324.336 191.64 327.354 190.49 330.497 189.834ZM287.055 204.944H286.842C283.422 205.679 280.123 206.897 277.047 208.562C274.154 210.269 271.443 212.266 268.954 214.521H268.316L263.844 206.433C262.461 203.217 261.947 199.695 262.353 196.218C262.418 194.727 262.838 193.273 263.579 191.978C264.32 190.682 265.36 189.582 266.612 188.77C267.545 188.334 268.564 188.116 269.593 188.131C271.535 188.153 273.44 188.665 275.13 189.621C278.276 191.125 280.933 193.485 282.796 196.431L287.055 204.944ZM288.12 209.2C285.937 211.567 283.338 213.514 280.454 214.946C277.603 216.517 274.507 217.596 271.297 218.138C273.64 215.921 276.295 214.057 279.176 212.605C281.914 210.913 284.949 209.757 288.12 209.2ZM299.406 282.197C301.07 283.594 302.136 285.573 302.387 287.73C303.014 292.112 302.031 296.573 299.619 300.286L294.295 307.522H293.87C291.679 304.812 289.095 302.445 286.203 300.499C283.592 298.556 280.726 296.981 277.685 295.817L277.047 295.391L282.37 288.156C285.99 282.835 295.147 279.004 299.406 282.197ZM290.675 310.289C287.629 309.328 284.754 307.892 282.157 306.032C279.533 304.154 277.169 301.936 275.13 299.435C278.192 300.355 281.074 301.795 283.648 303.691C286.324 305.506 288.696 307.733 290.675 310.289ZM278.75 285.389L274.491 291.561C271.084 287.304 267.251 283.048 262.992 278.366L265.973 274.322L275.343 281.558H275.556L279.815 284.325L278.75 285.389ZM254.474 280.92C251.427 279.96 248.553 278.523 245.956 276.663C243.331 274.785 240.968 272.567 238.929 270.066C242.047 271.012 244.994 272.449 247.66 274.322C250.235 276.184 252.53 278.406 254.474 280.92ZM257.881 277.94C255.516 275.335 252.953 272.916 250.215 270.704C247.389 268.863 244.395 267.295 241.271 266.022L240.632 265.597L246.169 258.148C248.302 255.448 251.194 253.446 254.474 252.402C255.854 251.759 257.371 251.461 258.892 251.535C260.413 251.609 261.894 252.053 263.205 252.828C267.464 256.02 267.038 265.597 263.418 270.492L257.881 278.153V277.94ZM176.322 334.55C175.472 331.433 175.183 328.191 175.47 324.973C175.445 321.752 176.098 318.562 177.386 315.609C178.144 318.669 178.431 321.827 178.238 324.973C178.119 328.248 177.472 331.482 176.322 334.55ZM180.581 335.401L181.007 334.763C181.881 331.713 182.382 328.569 182.497 325.399C182.755 322.122 182.54 318.825 181.858 315.609V314.758L190.802 315.396C197.191 315.822 205.07 321.355 204.857 326.888C204.575 328.976 203.509 330.878 201.876 332.209C198.443 335.133 194.031 336.654 189.525 336.465L180.581 336.04V335.401ZM191.015 311.14L183.562 310.714C185.266 305.607 186.969 299.861 188.46 293.902L193.571 294.327L192.506 306.032V311.14H191.015ZM181.858 288.156C180.98 285.044 180.691 281.796 181.007 278.579C181.1 275.39 181.674 272.233 182.71 269.215C183.686 272.307 183.977 275.575 183.562 278.792C183.515 281.985 182.939 285.15 181.858 288.156ZM186.117 289.22C187.296 285.938 187.943 282.49 188.034 279.004C188.292 275.657 188.077 272.29 187.395 269.002V268.363L196.552 269.002C202.94 269.215 210.606 274.961 210.393 280.281C210.117 281.786 209.491 283.206 208.567 284.425C207.642 285.645 206.445 286.631 205.07 287.304C202.169 289.215 198.747 290.182 195.274 290.071L186.117 289.432V289.22ZM178.451 217.287C178.409 210.871 180.277 204.588 183.817 199.236C187.358 193.884 192.411 189.705 198.334 187.23C204.257 184.755 210.783 184.097 217.081 185.338C223.38 186.579 229.167 189.665 233.706 194.201C238.246 198.738 241.333 204.522 242.575 210.816C243.817 217.111 243.159 223.633 240.682 229.552C238.206 235.472 234.024 240.522 228.669 244.06C223.314 247.598 217.026 249.465 210.606 249.423C202.096 249.367 193.949 245.963 187.931 239.949C181.913 233.934 178.507 225.793 178.451 217.287ZM143.741 272.833L127.13 246.018L135.861 241.548C137.635 244.005 139.929 246.041 142.579 247.512C145.228 248.983 148.17 249.853 151.194 250.061C152.962 250.165 154.725 249.797 156.304 248.997C162.693 245.592 164.397 235.59 161.841 228.141L173.553 222.182C174.573 230.404 178.322 238.048 184.201 243.889L143.741 272.833ZM111.798 264.533C110.836 264.982 109.793 265.233 108.732 265.269C107.671 265.306 106.613 265.128 105.623 264.746C101.378 263.422 97.7982 260.529 95.614 256.659L91.3551 248.571H91.781C95.1787 247.76 98.4672 246.545 101.577 244.954C104.422 243.442 107.068 241.583 109.456 239.42L110.095 238.995L114.141 246.869C117.122 252.402 116.483 261.979 111.798 264.533ZM90.5033 244.102C92.7137 241.822 95.3087 239.949 98.1695 238.569C100.953 236.97 103.971 235.821 107.113 235.164C104.99 237.596 102.378 239.554 99.4471 240.91C96.6669 242.47 93.6431 243.549 90.5033 244.102ZM117.974 244.741L114.566 237.931C119.677 236.866 125.427 235.377 131.389 233.674L133.732 237.931L123.084 243.464H122.871L118.613 246.018L117.974 244.741ZM133.945 229.205H135.01C138.087 228.34 141.08 227.2 143.953 225.8C146.784 224.264 149.427 222.407 151.833 220.267C151.833 220.054 152.046 220.054 152.046 219.841H152.684L156.943 227.928C159.925 233.461 159.073 243.038 154.388 245.592C149.703 248.146 141.185 243.464 138.204 237.931L133.945 229.205ZM132.88 224.949C135.063 222.582 137.662 220.635 140.546 219.203C143.429 217.657 146.51 216.511 149.703 215.797C147.441 218.167 144.772 220.113 141.824 221.544C139.041 223.143 136.022 224.292 132.88 224.949ZM124.149 149.611C123.334 148.974 122.665 148.169 122.188 147.251C121.71 146.333 121.435 145.324 121.381 144.291C120.626 139.904 121.62 135.397 124.149 131.734L129.473 124.286L129.899 124.711L130.325 125.35C132.418 127.737 134.775 129.879 137.352 131.734C139.994 133.63 142.854 135.202 145.87 136.416L146.509 136.842L141.398 143.865C137.565 149.185 128.621 152.803 124.149 149.611ZM133.093 121.519C136.157 122.535 139.035 124.044 141.611 125.988C144.284 127.731 146.598 129.971 148.425 132.586C145.383 131.52 142.513 130.014 139.907 128.116C137.234 126.374 134.921 124.134 133.093 121.519ZM144.805 146.419L149.277 140.247C152.684 144.503 156.517 148.973 160.776 153.442L157.795 157.485L148.212 150.462H147.999L143.741 147.909L144.805 146.419ZM169.081 150.888C172.182 151.816 175.075 153.333 177.599 155.357C180.374 157.045 182.767 159.292 184.627 161.954C181.545 160.981 178.66 159.468 176.109 157.485C173.433 155.67 171.061 153.444 169.081 150.888ZM165.887 154.08C168.078 156.79 170.662 159.158 173.553 161.103C176.208 162.979 179.065 164.55 182.071 165.785H182.284L182.923 166.211L177.599 173.659C175.488 176.429 172.596 178.505 169.294 179.618C167.914 180.262 166.398 180.56 164.876 180.485C163.355 180.411 161.875 179.968 160.563 179.193C156.092 176 156.73 166.424 160.35 161.316L165.674 153.867L165.887 154.08ZM155.666 161.103C154.021 164.184 153.145 167.615 153.11 171.106C152.95 173.273 153.311 175.447 154.163 177.446C155.015 179.445 156.334 181.212 158.008 182.598C160.003 183.999 162.385 184.743 164.822 184.726C170.211 184.462 175.304 182.183 179.09 178.342L189.737 186.003C182.866 190.693 177.709 197.491 175.044 205.369L130.964 181.959L147.574 155.144L155.666 161.103ZM251.706 100.237C252.447 103.372 252.734 106.598 252.557 109.814C252.471 113.023 251.823 116.193 250.641 119.178C249.777 116.064 249.489 112.819 249.789 109.601C249.817 106.386 250.468 103.206 251.706 100.237ZM247.234 99.1732C247.234 99.5988 247.021 99.8117 247.021 100.024C246.07 103.064 245.498 106.209 245.317 109.388C245.17 112.665 245.384 115.948 245.956 119.178V119.817L237.225 119.391C230.837 118.965 222.745 113.432 223.17 107.899C223.264 106.852 223.578 105.837 224.091 104.92C224.605 104.003 225.307 103.205 226.152 102.578C229.343 99.7887 233.412 98.207 237.651 98.1091H238.29L247.234 98.7476V99.1732ZM237.012 123.647L244.465 124.073C242.762 129.181 241.058 134.714 239.355 140.886L234.67 140.46L235.309 128.329V123.434L237.012 123.647ZM246.169 146.419C246.91 149.554 247.197 152.779 247.021 155.996C247.01 159.282 246.359 162.535 245.104 165.572C244.363 162.437 244.076 159.212 244.252 155.996C244.263 152.709 244.914 149.457 246.169 146.419ZM241.697 145.568C240.729 148.903 240.087 152.324 239.78 155.783C239.744 158.987 239.958 162.189 240.419 165.36C240.476 165.36 240.53 165.382 240.57 165.422C240.61 165.462 240.632 165.516 240.632 165.572V166.424L231.475 165.785C227.985 165.43 224.665 164.103 221.893 161.954C219.124 159.613 217.421 156.847 217.634 154.506C217.847 152.165 225.726 144.716 231.901 144.716H232.54L241.91 145.142L241.697 145.568ZM230.411 140.46C222.532 141.098 213.801 146.844 213.375 154.08C212.949 161.316 215.291 161.955 219.337 165.36C221.951 167.448 225.012 168.905 228.281 169.616L227.429 183.662C222.22 181.006 216.455 179.621 210.606 179.618C208.166 179.587 205.732 179.873 203.366 180.47L199.32 130.883H231.05L230.411 140.46ZM277.259 161.103L293.87 188.131L284.926 192.388C282.852 189.656 280.149 187.466 277.047 186.003C275.201 184.897 273.12 184.243 270.973 184.095C268.827 183.947 266.675 184.309 264.695 185.152C258.307 188.557 256.603 198.346 258.946 205.582L247.66 211.328C246.417 203.316 242.606 195.922 236.799 190.259L277.259 161.103ZM197.83 294.114C201.241 293.868 204.535 292.771 207.412 290.922C209.353 289.874 211.02 288.384 212.278 286.572C213.536 284.76 214.349 282.678 214.652 280.494C215.078 273.471 207.412 266.874 199.959 265.171L200.811 253.466C208.629 255.529 216.898 255.082 224.448 252.189L228.494 303.904H196.978L197.83 294.114ZM268.103 270.704C271.723 263.682 271.51 253.679 265.547 249.21C259.585 244.741 250.215 247.933 244.678 253.253L234.883 246.018C241.143 240.757 245.486 233.573 247.234 225.587L292.805 249.848L275.982 276.663L268.103 270.704ZM287.268 196.218L297.916 190.685H298.128L302.174 187.918C302.327 188.479 302.62 188.992 303.026 189.408L306.433 196.218C301.11 197.282 295.573 198.772 289.611 200.475L287.268 196.218ZM372.448 167.701C370.035 170.236 367.139 172.262 363.93 173.659C360.823 175.303 357.421 176.316 353.921 176.639C356.273 174.034 359.185 171.997 362.439 170.68C367.337 168.339 370.957 167.488 372.448 167.701ZM368.402 164.508C365.813 165.121 363.31 166.05 360.948 167.275C357.89 168.758 355.029 170.617 352.43 172.808H351.792L347.746 165.36C344.764 159.614 345.403 149.824 350.088 147.27C351.051 146.691 352.158 146.396 353.282 146.419C354.311 146.404 355.331 146.622 356.264 147.057C360.554 148.514 364.18 151.458 366.485 155.357L370.531 163.231L368.402 164.508ZM396.298 157.273L392.465 149.824C389.696 144.503 389.484 133.863 394.594 131.096C395.608 130.68 396.693 130.463 397.789 130.457L400.983 130.883C405.387 132.348 409.099 135.377 411.417 139.396L415.463 147.057C411.842 147.783 408.379 149.153 405.242 151.101C402.396 152.506 399.805 154.376 397.576 156.634H397.363L396.298 157.273ZM397.363 116.837C400.649 120.672 403.572 124.805 406.094 129.181C404.833 128.371 403.473 127.728 402.048 127.265C400.562 126.725 398.979 126.502 397.401 126.612C395.824 126.722 394.287 127.162 392.891 127.904C387.354 130.883 386.076 138.97 387.141 145.78C380.966 147.483 375.003 149.398 369.04 151.526C366.21 147.586 362.174 144.673 357.541 143.227C356.034 142.648 354.424 142.388 352.812 142.461C351.199 142.534 349.62 142.94 348.171 143.652C342.209 146.844 340.931 155.357 342.209 162.167L325.173 170.467C322.786 168.104 319.864 166.352 316.655 165.36C315.148 164.781 313.538 164.521 311.926 164.594C310.313 164.667 308.733 165.073 307.285 165.785C301.323 168.978 299.832 177.065 301.11 183.875L297.49 186.003L280.88 158.762C292.379 151.739 347.746 119.604 397.363 116.837ZM315.59 135.565C302.078 141.852 288.925 148.886 276.195 156.634L233.392 187.493C233.179 187.067 232.753 186.854 232.327 186.429C233.392 180.895 234.67 175.575 235.734 170.467L244.465 170.893H245.104C247.021 170.893 248.724 169.19 249.789 165.785C250.766 162.759 251.268 159.601 251.28 156.421C251.493 153.867 251.919 141.524 246.382 141.098H243.188C244.891 134.927 246.382 129.393 248.085 124.286H250.641C255.752 124.286 256.816 112.368 256.816 109.814C256.965 107.259 256.894 104.696 256.603 102.153C262.779 89.1708 267.89 83.6375 272.149 81.935L274.491 81.2965C297.021 92.1662 316.543 108.388 331.349 128.542L315.59 135.565ZM264.27 16.5998C264.338 20.1217 263.61 23.6135 262.14 26.8151C260.977 23.4694 260.541 19.9143 260.862 16.387C260.886 12.8257 261.534 9.29611 262.779 5.95893C263.631 7.44866 264.27 11.0666 264.27 16.5998ZM223.809 5.32047C228.738 4.5354 233.725 4.17936 238.716 4.25638L235.096 6.59736C232.712 8.75351 231.198 11.7047 230.837 14.8973C230.624 21.069 236.799 26.3894 243.188 28.9432C241.484 35.044 239.993 41.2158 238.716 47.4584C233.848 47.8945 229.236 49.8276 225.513 52.9917C224.272 54.0095 223.253 55.2715 222.52 56.6993C221.788 58.1272 221.357 59.6903 221.254 61.2916C220.828 68.1018 227.429 73.4222 234.031 75.976C233.179 82.5734 232.54 88.9579 232.114 94.704C228.882 95.5716 225.894 97.174 223.383 99.386C222.122 100.401 221.076 101.659 220.308 103.084C219.54 104.51 219.065 106.074 218.911 107.686C218.486 114.496 224.874 119.817 231.05 122.158V126.414H199.32C199.107 113.006 200.385 48.9482 223.809 5.32047ZM197.404 84.9144C195.607 99.7411 194.824 114.673 195.061 129.606L199.107 181.534L194.848 183.236L183.775 172.383L188.886 165.36H189.099C190.163 163.657 189.737 161.316 187.395 158.549C185.274 156.111 182.84 153.964 180.155 152.165C178.238 150.675 168.017 143.865 164.822 148.334H164.609L162.906 150.675L151.407 137.48L152.471 136.204L152.897 135.778C155.879 131.309 146.083 124.073 143.953 122.583C141.895 121.076 139.682 119.792 137.352 118.752C129.686 106.622 127.769 99.1732 128.621 94.704C128.905 93.0028 129.726 91.4368 130.964 90.2348C132.73 88.9764 134.58 87.8388 136.5 86.8298H136.926C156.276 75.9342 177.805 69.4651 199.959 67.889C198.894 73.635 198.042 79.5939 197.404 84.9144ZM68.7825 66.1864C71.8719 68.0405 74.5524 70.5022 76.6616 73.4222C73.1965 72.5991 69.9359 71.0784 67.0789 68.953C64.0374 67.0357 61.368 64.5843 59.1998 61.7172C62.698 62.4429 65.979 63.973 68.7825 66.1864ZM37.6919 94.2784C39.7027 89.6712 42.126 85.2549 44.9322 81.0837C44.6749 82.4999 44.7477 83.9565 45.1451 85.34C45.277 86.9271 45.7437 88.4683 46.5145 89.8622C47.2852 91.2561 48.3426 92.471 49.6171 93.4271C51.3677 94.625 53.4601 95.2224 55.5797 95.1297C60.157 94.9323 64.5546 93.2935 68.1436 90.4477C72.4026 95.3425 76.8745 99.8117 81.3464 104.281C79.2072 108.557 78.3917 113.373 79.0041 118.114C79.4564 121.374 81.1309 124.341 83.6889 126.414C85.5767 127.681 87.8034 128.349 90.0774 128.329C94.7466 128.086 99.2191 126.373 102.854 123.434L117.761 134.927C116.807 138.172 116.589 141.589 117.122 144.929C117.532 148.203 119.214 151.185 121.807 153.229C123.771 154.501 126.067 155.167 128.408 155.144C132.82 154.948 137.062 153.387 140.546 150.675L144.166 152.803L127.343 179.831C115.844 172.595 62.181 137.48 37.6919 94.2784ZM127.343 184.939L173.979 209.413C173.381 211.705 173.095 214.067 173.127 216.436L158.647 221.331L154.388 213.669C151.62 208.774 140.759 214.308 138.417 215.585C135.542 217.047 132.889 218.91 130.538 221.118C127.982 223.672 127.13 225.8 128.195 227.715L129.686 230.269C123.51 232.184 117.974 233.461 112.863 234.738L112.011 233.036C111.798 233.036 111.798 232.823 111.798 232.61C109.243 227.928 98.1695 233.461 96.04 234.738L89.6515 238.782C75.3839 240.484 67.9307 238.782 64.3105 236.015C63.1761 235.304 62.2849 234.265 61.7552 233.036C61.0754 227.599 60.7198 222.127 60.6904 216.649C60.6725 192.622 66.5202 168.953 77.7263 147.696C93.1452 161.535 109.748 173.997 127.343 184.939ZM23.6373 317.312C20.3324 313.491 17.4083 309.357 14.9064 304.968C16.144 305.819 17.51 306.465 18.9524 306.884C20.333 307.304 21.7681 307.519 23.2114 307.522C24.9278 307.533 26.6167 307.092 28.1092 306.245C33.6459 303.266 34.9236 295.179 33.6459 288.368C39.8214 286.666 45.9969 284.751 51.9595 282.622C54.7896 286.563 58.8259 289.476 63.4587 290.922C64.8066 291.49 66.2552 291.779 67.7177 291.773C69.5037 291.801 71.2658 291.361 72.8285 290.497C78.7911 287.304 80.0688 278.792 78.5781 271.981C84.7536 269.215 90.5033 266.448 95.614 263.682C98.0766 266.054 101.07 267.805 104.345 268.789C105.722 269.256 107.153 269.542 108.604 269.64C110.39 269.668 112.152 269.228 113.715 268.363C119.677 265.171 120.955 257.084 119.89 250.274L123.297 248.146L140.12 275.174C128.621 282.41 73.2544 314.545 23.6373 317.312ZM105.41 298.584C119.004 292.38 132.165 285.27 144.805 277.302L187.395 246.656C189.739 248.538 192.316 250.112 195.061 251.338C193.996 255.807 193.145 260.276 192.08 264.32L183.349 263.894H183.136C177.599 263.469 176.748 276.025 176.535 278.366C176.322 280.707 176.109 293.263 181.645 293.476H184.84C183.136 299.648 181.432 305.181 179.729 310.289H177.599C172.276 309.863 171.211 322.206 170.998 324.76C170.916 327.322 171.058 329.885 171.424 332.422C165.248 345.404 159.925 350.937 155.879 352.639C151.833 354.342 148.212 352.214 145.87 350.724C143.528 349.234 143.528 349.234 142.25 349.66C121.64 338.993 103.727 323.784 89.8644 305.181L105.41 298.584ZM163.758 418.187C163.733 414.601 164.458 411.049 165.887 407.759C167.02 411.185 167.454 414.804 167.165 418.4C167.233 421.922 166.505 425.414 165.035 428.615C163.872 425.27 163.437 421.715 163.758 418.187ZM204.218 429.467C199.219 430.259 194.16 430.615 189.099 430.531C190.465 429.932 191.697 429.063 192.719 427.977C193.974 427.003 195.018 425.783 195.787 424.393C196.556 423.003 197.033 421.471 197.191 419.89C197.404 413.718 191.228 408.398 184.84 405.844C186.543 399.743 188.034 393.571 189.312 387.329C194.101 386.837 198.63 384.908 202.301 381.796C203.563 380.78 204.609 379.523 205.377 378.097C206.145 376.672 206.62 375.107 206.773 373.496C207.199 366.685 200.385 361.152 193.996 358.811C194.848 352.214 195.274 345.829 195.7 340.083C199.014 339.262 202.081 337.656 204.644 335.401C207.157 333.32 208.76 330.343 209.116 327.101C209.329 320.291 203.153 314.971 196.765 312.417V308.373H228.707C228.707 321.568 227.642 385.626 204.218 429.467ZM230.624 349.873C232.292 335.035 233.074 320.112 232.966 305.181L228.707 250.274L229.772 249.423L239.993 259.425L234.883 266.661H234.67C231.475 271.13 241.484 278.579 243.401 280.068C245.317 281.558 251.28 285.389 255.752 285.389C256.365 285.414 256.974 285.292 257.53 285.033C258.086 284.774 258.572 284.385 258.946 283.899L260.862 281.345L272.362 294.54L271.297 296.03L270.871 296.456C269.593 298.158 270.232 300.286 272.575 303.266C274.724 305.597 277.075 307.734 279.602 309.65C281.692 311.108 283.9 312.39 286.203 313.481C294.082 325.612 295.786 332.847 295.147 337.529C294.945 338.604 294.509 339.621 293.87 340.509C274.305 353.687 251.908 362.072 228.494 364.983C229.346 359.662 229.985 354.555 230.624 349.873ZM385.863 337.742C384.079 342.241 381.793 346.524 379.049 350.511C379.197 349.161 379.126 347.795 378.836 346.468C378.666 344.867 378.16 343.32 377.353 341.927C376.546 340.534 375.455 339.326 374.151 338.381C368.827 334.55 360.948 337.104 355.412 341.147C351.153 336.465 346.681 331.996 342.209 327.527C344.565 323.325 345.392 318.437 344.551 313.694C344.419 312.107 343.953 310.565 343.182 309.172C342.411 307.778 341.354 306.563 340.079 305.607C334.33 301.563 326.238 304.33 320.701 308.586C315.59 304.33 310.48 300.499 305.795 296.881C306.813 293.65 307.103 290.235 306.646 286.879C306.206 283.674 304.523 280.77 301.962 278.792C296.425 274.748 288.546 277.302 283.222 281.345L279.602 279.004L296.425 251.977C307.924 259.212 361.374 294.54 385.863 337.742ZM296.212 246.869L248.085 221.331C248.085 220.054 248.298 218.777 248.298 217.5L262.353 212.818L266.399 220.479H266.612C267.042 221.143 267.648 221.673 268.363 222.011C269.077 222.35 269.872 222.482 270.658 222.395H273.426C279.659 220.667 285.414 217.537 290.249 213.244C293.018 210.69 293.87 208.562 292.805 206.646H292.592L291.314 203.88L308.137 199.623L308.989 201.326H309.202C309.546 202.03 310.098 202.611 310.784 202.992C311.469 203.372 312.255 203.534 313.035 203.454C317.507 203.454 323.256 200.262 324.96 199.41C327.201 198.166 329.337 196.743 331.349 195.154C345.616 193.664 353.069 195.367 356.689 198.134C357.677 198.769 358.484 199.649 359.032 200.687C359.646 205.985 359.93 211.316 359.884 216.649C359.944 239.553 354.619 262.152 344.338 282.622C329.228 269.5 313.14 257.547 296.212 246.869Z" fill="#EB623D"/>
<path d="M210.607 237.931C214.659 237.973 218.632 236.81 222.022 234.591C225.411 232.372 228.065 229.196 229.645 225.467C231.225 221.738 231.66 217.623 230.895 213.646C230.131 209.669 228.201 206.009 225.35 203.13C222.5 200.252 218.858 198.285 214.887 197.479C210.915 196.673 206.794 197.065 203.046 198.605C199.298 200.145 196.093 202.763 193.837 206.128C191.581 209.492 190.377 213.45 190.376 217.5C190.376 222.882 192.501 228.046 196.289 231.872C200.077 235.697 205.222 237.874 210.607 237.931ZM226.791 217.5C226.833 220.708 225.92 223.855 224.167 226.543C222.415 229.231 219.902 231.337 216.949 232.594C213.996 233.851 210.735 234.202 207.582 233.602C204.428 233.002 201.525 231.478 199.24 229.225C196.955 226.972 195.393 224.09 194.751 220.947C194.109 217.804 194.417 214.541 195.635 211.573C196.854 208.606 198.928 206.067 201.593 204.28C204.259 202.493 207.397 201.539 210.607 201.539C214.862 201.538 218.947 203.213 221.976 206.2C225.005 209.188 226.735 213.247 226.791 217.5Z" fill="#EB623D"/>
</g>
<defs>
<clipPath id="clip0_113_615">
<rect width="421" height="435" fill="white"/>
</clipPath>
</defs>
</svg>
