<svg width="298" height="30" viewBox="0 0 298 30" fill="none" xmlns="http://www.w3.org/2000/svg">
<g clip-path="url(#clip0_3_20)">
<path d="M0 0.257141V29.4H22.231V23.6571H6.26587V17.4H20.0851V11.6571H6.26587V6H21.8876V0.257141H0Z" fill="#E9623E"/>
<path d="M55.8778 0.257141L49.5261 9.6L43.5177 0.257141H36.0502L45.6636 14.4L35.4494 29.4H42.9169L49.5261 19.2L55.8778 29.4H63.3454L53.1311 14.4L63.002 0.257141H55.8778Z" fill="#E9623E"/>
<path d="M77.4221 0.257141V29.4H99.3955V23.6571H83.7738V17.4H97.2497V11.6571H83.7738V6H99.3955V0.257141H77.4221Z" fill="#E9623E"/>
<path d="M129.952 17.0571H122.485V23.4H129.952C132.699 23.4 134.502 22.4571 134.502 20.0571C134.759 18.6 133.3 17.0571 129.952 17.0571ZM132.957 8.65714C132.957 6.85714 131.497 5.65714 128.751 5.65714H122.485V11.6571H128.493C131.154 12 132.957 11.0571 132.957 8.65714ZM116.219 0.257141H129.695C132.957 0.257141 135.703 1.2 137.162 3C138.465 4.26776 139.233 5.98511 139.308 7.8C139.308 11.0571 137.506 12.8571 135.36 14.0571C138.707 15.2571 140.767 17.4 140.767 21.2571C140.767 26.6571 136.562 29.4 129.952 29.4H116.219V0.257141Z" fill="#E9623E"/>
<path d="M155.788 0.257141V29.4H178.019V23.6571H162.14V17.4H175.959V11.6571H162.14V6H177.762V0.257141H155.788Z" fill="#E9623E"/>
<path d="M213.125 0.257141V18L199.649 0.257141H193.641V29.4H199.907V10.8L214.069 29.4H219.477V0.257141H213.125Z" fill="#E9623E"/>
<path d="M235.7 16.8V0.257141H241.966V16.8C241.966 21.6 244.369 24 248.231 24C252.094 24 254.583 21.6 254.583 17.0571V0.257141H260.849V16.8C260.849 25.4571 256.042 30 248.231 30C240.421 30 235.7 25.4571 235.7 16.8Z" fill="#E9623E"/>
<path d="M274.067 24.8571L278.016 20.4C280.677 22.4571 283.423 24 286.685 24C289.947 24 290.891 22.8 290.891 21.2571C290.891 19.8 290.032 18.8571 284.882 17.6571C279.732 16.4571 275.269 14.6571 275.269 8.65714C275.269 3.25714 279.475 -7.34348e-06 285.483 -7.34348e-06C289.399 -0.100738 293.226 1.1732 296.298 3.59999L293.037 8.4C290.29 6.6 287.887 5.65714 285.483 5.65714C283.08 5.65714 281.878 6.85714 281.878 8.05714C281.878 9.85714 283.08 10.4571 288.23 12C293.38 13.5429 297.5 15.6 297.5 20.6571C297.5 26.4 293.037 29.6571 287.028 29.6571C281.02 29.6571 277.415 28.2 274.067 24.8571Z" fill="#E9623E"/>
</g>
<defs>
<clipPath id="clip0_3_20">
<rect width="297.5" height="30" fill="white"/>
</clipPath>
</defs>
</svg>
