<svg width="276" height="40" viewBox="0 0 276 40" fill="none" xmlns="http://www.w3.org/2000/svg">
<path d="M77.3034 0.337077H62.5843V39.6629H66.7416V27.2472H77.3034C87.3034 27.2472 93.3708 22.191 93.3708 13.8202C93.3708 5.39326 87.3034 0.337077 77.3034 0.337077ZM77.191 23.5955H66.7416V3.93258H77.191C85.0562 3.93258 89.2135 7.52809 89.2135 13.8202C89.2135 20 85.0562 23.5955 77.191 23.5955Z" fill="white"/>
<path d="M126.792 40C136.848 40 142.915 34.1573 142.915 22.8652V0.337077H138.87V22.6966C138.87 32.0225 134.488 36.2921 126.792 36.2921C119.151 36.2921 114.769 32.0225 114.769 22.6966V0.337077H110.612V22.8652C110.612 34.1573 116.735 40 126.792 40Z" fill="white"/>
<path d="M163.757 39.6629H189.937V36.0674H167.915V0.337077H163.757V39.6629Z" fill="white"/>
<path d="M215.558 40C225.614 40 230.221 35.0562 230.221 29.2697C230.221 14.9438 206.008 21.4607 206.008 10.6742C206.008 6.74157 209.21 3.53933 216.401 3.53933C219.884 3.53933 223.817 4.60674 227.188 6.79775L228.592 3.48314C225.446 1.29213 220.839 0 216.401 0C206.401 0 201.907 5 201.907 10.7865C201.907 25.3371 226.12 18.7079 226.12 29.4944C226.12 33.3708 222.918 36.4607 215.558 36.4607C210.39 36.4607 205.39 34.4382 202.581 31.6854L200.952 34.8876C203.873 37.9213 209.659 40 215.558 40Z" fill="white"/>
<path d="M251.751 36.0674V21.4607H272.088V17.9213H251.751V3.93258H274.56V0.337077H247.594V39.6629H275.403V36.0674H251.751Z" fill="white"/>
<path d="M34.6641 0.217285H0V39.6627L34.6641 0.217285Z" fill="#E9623E"/>
</svg>
