<svg width="333" height="40" viewBox="0 0 333 40" fill="none" xmlns="http://www.w3.org/2000/svg">
<path d="M73.4268 40C83.483 40 88.0897 35.0562 88.0897 29.2697C88.0897 14.9438 63.8762 21.4607 63.8762 10.6742C63.8762 6.74157 67.0785 3.53933 74.2695 3.53933C77.7527 3.53933 81.6852 4.60674 85.056 6.79775L86.4605 3.48314C83.3145 1.29213 78.7077 0 74.2695 0C64.2695 0 59.7751 5 59.7751 10.7865C59.7751 25.3371 83.9886 18.7079 83.9886 29.4944C83.9886 33.3708 80.7864 36.4607 73.4268 36.4607C68.2583 36.4607 63.2583 34.4382 60.4493 31.6854L58.8201 34.8876C61.7414 37.9213 67.5279 40 73.4268 40Z" fill="white"/>
<path d="M122.541 40C128.328 40 133.496 38.0337 136.979 34.2135L134.339 31.573C131.137 34.8876 127.204 36.2921 122.71 36.2921C113.215 36.2921 106.08 29.3258 106.08 20C106.08 10.6742 113.215 3.70786 122.71 3.70786C127.204 3.70786 131.137 5.11236 134.339 8.37078L136.979 5.73033C133.496 1.91011 128.328 0 122.597 0C110.743 0 101.979 8.48315 101.979 20C101.979 31.5168 110.743 40 122.541 40Z" fill="white"/>
<path d="M170.524 40C182.322 40 191.142 31.5168 191.142 20C191.142 8.48315 182.322 0 170.524 0C158.614 0 149.85 8.53933 149.85 20C149.85 31.4607 158.614 40 170.524 40ZM170.524 36.2921C161.03 36.2921 153.951 29.382 153.951 20C153.951 10.618 161.03 3.70786 170.524 3.70786C179.963 3.70786 186.985 10.618 186.985 20C186.985 29.382 179.963 36.2921 170.524 36.2921Z" fill="white"/>
<path d="M240.18 39.6629L230.573 26.1798C236.303 24.3258 239.562 20 239.562 13.8202C239.562 5.39326 233.494 0.337077 223.494 0.337077H208.775V39.6629H212.933V27.191H223.494C224.618 27.191 225.629 27.1348 226.64 27.0225L235.629 39.6629H240.18ZM223.382 23.6517H212.933V3.93258H223.382C231.247 3.93258 235.404 7.52809 235.404 13.8202C235.404 20 231.247 23.6517 223.382 23.6517Z" fill="white"/>
<path d="M261.846 36.0674V21.4607H282.183V17.9213H261.846V3.93258H284.655V0.337077H257.689V39.6629H285.498V36.0674H261.846Z" fill="white"/>
<path d="M34.6641 0.217285H0V39.6627L34.6641 0.217285Z" fill="#E9623E"/>
<path d="M309.395 13.6048H311.289V1.88116H315.879V0.217285H304.805V1.88116H309.395V13.6048Z" fill="white"/>
<path d="M332.21 13.6048L332.191 0.217285H330.622L325.114 9.6268L319.53 0.217285H317.962V13.6048H319.798V3.90842L324.636 11.9792H325.516L330.355 3.85104L330.374 13.6048H332.21Z" fill="white"/>
</svg>
