<svg width="11" height="20" viewBox="0 0 11 20" fill="none" xmlns="http://www.w3.org/2000/svg">
<path d="M3.06684 20V10.8802H0V7.32911H3.06684V7.08699C3.06684 6.1508 3.03455 5.2146 3.08298 4.29455C3.1314 3.3745 3.45423 2.14776 4.24515 1.30842C4.8336 0.693036 5.60228 0.280434 6.44036 0.130104C7.12773 0.0120944 7.82648 -0.0258212 8.52259 0.0171153L10.2174 0.130104L10.3627 0.162386V3.32607H10.1529C9.45878 3.34222 8.76471 3.32607 8.07063 3.35836C7.37656 3.39064 6.77933 3.85874 6.74705 4.68194C6.71477 5.50514 6.74704 6.40905 6.7309 7.26454C6.7309 7.28068 6.74704 7.28068 6.76319 7.32911H10.2497C10.0883 8.52356 9.94301 9.68573 9.79774 10.8802H6.74705C6.74705 10.9447 6.7309 11.0093 6.7309 11.0577V19.8709C6.7309 19.9193 6.74705 19.9516 6.74705 20H3.06684Z" fill="#C4C4C4"/>
</svg>
