<svg width="20" height="20" viewBox="0 0 20 20" fill="none" xmlns="http://www.w3.org/2000/svg">
<path d="M11.2197 20.0001H7.09369V6.66687H11.044V8.46373L11.1351 8.41165C12.0007 7.00541 13.3088 6.38692 14.9162 6.33484C15.8338 6.3088 16.7319 6.41947 17.578 6.81661C18.6713 7.33744 19.283 8.23587 19.6215 9.36216C19.8883 10.2606 19.9859 11.1786 19.9859 12.1095C20.0054 14.6811 19.9989 17.2527 19.9989 19.8243C19.9996 19.87 19.9974 19.9157 19.9924 19.9611H15.8534V19.6811C15.8534 17.5001 15.8599 15.3192 15.8469 13.1382C15.8439 12.6425 15.7982 12.1481 15.7102 11.6603C15.4629 10.2931 14.5713 9.83091 13.3023 9.98065C12.1438 10.1174 11.5061 10.7944 11.3238 12.0509C11.2587 12.5081 11.2261 12.9693 11.2262 13.4311C11.2175 15.5231 11.2154 17.6086 11.2197 19.6876V20.0001Z" fill="#C4C4C4"/>
<path d="M0.338562 6.66681H4.46459V19.9935H0.338562V6.66681Z" fill="#C4C4C4"/>
<path d="M4.79634 2.39585C4.80285 3.71746 3.72904 4.81771 2.41444 4.82422C1.09984 4.83073 0 3.73048 0 2.40236C0 1.07425 1.07381 0.0130561 2.3819 3.53372e-05C2.69781 -0.00167871 3.01094 0.0589786 3.30338 0.178532C3.59581 0.298086 3.8618 0.474186 4.08609 0.696743C4.31037 0.919301 4.48856 1.18394 4.61044 1.47551C4.73232 1.76707 4.79549 2.07983 4.79634 2.39585Z" fill="#C4C4C4"/>
</svg>
